{"title":"9 K.K Road Malayalam Movie","uid":6135060,"size":660542504,"categoryP":"video","categoryS":"movies","magnet":"?xt=urn:btih:cd1b530df6287d6cb5e2f0d7adac338ba562eb73&amp;dn=9+K.K+Road+Malayalam+Movie&amp;tr=udp%3A%2F%2Ftracker.openbittorrent.com%3A80&amp;tr=udp%3A%2F%2Fopen.demonii.com%3A1337&amp;tr=udp%3A%2F%2Ftracker.coppersurfer.tk%3A6969&amp;tr=udp%3A%2F%2Fexodus.desync.com%3A6969","seeders":0,"leechers":1,"uploader":"cijob","files":1,"time":1296271063,"description":"Format                           : AVI\nFormat/Info                      : Audio Video Interleave\nFile size                        : 630 MiB\nDuration                         : 1h 54mn\nOverall bit rate                 : 769 Kbps\nWriting application              : Lavf52.0.0\n\nVideo\nID                               : 0\nFormat                           : xvid\nCodec ID                         : xvid\nDuration                         : 1h 54mn\nBit rate                         : 693 Kbps\nWidth                            : 352 pixels\nHeight                           : 288 pixels\nDisplay aspect ratio             : 1.222\nFrame rate                       : 25.000 fps\nStandard                         : PAL\nBits/(Pixel*Frame)               : 0.273\nStream size                      : 567 MiB (90%)\n\nAudio\nID                               : 1\nFormat                           : MPEG Audio\nFormat version                   : Version 1\nFormat profile                   : Layer 3\nMode                             : Joint stereo\nMode extension                   : MS Stereo\nCodec ID                         : 55\nCodec ID/Hint                    : MP3\nDuration                         : 1h 54mn\nBit rate mode                    : Constant\nBit rate                         : 64.0 Kbps\nChannel(s)                       : 2 channels\nSampling rate                    : 44.1 KHz\nStream size                      : 52.4 MiB (8%)\nAlignment                        : Aligned on interleaves\nInterleave, duration             : 26 ms (0.65 video frame)\n\n","torrent":{"xt":"urn:btih:cd1b530df6287d6cb5e2f0d7adac338ba562eb73","amp;dn":"9+K.K+Road+Malayalam+Movie","amp;tr":["udp%3A%2F%2Ftracker.openbittorrent.com%3A80","udp%3A%2F%2Fopen.demonii.com%3A1337","udp%3A%2F%2Ftracker.coppersurfer.tk%3A6969","udp%3A%2F%2Fexodus.desync.com%3A6969"],"infoHash":"cd1b530df6287d6cb5e2f0d7adac338ba562eb73","infoHashBuffer":{"type":"Buffer","data":[205,27,83,13,246,40,125,108,181,226,240,215,173,172,51,139,165,98,235,115]},"announce":[],"urlList":[]}}